- 
http://www.Speed.Cd 
       
http://www.Speed.Cd      fast  and The Hottest Private Tracker on the net

(((--Registration will be open on june every weekend--)))

Please Seed back to make the speed Faster!!!

------------------nfo--------------------------
-








































          
          
              
              
                    
                    
                    
                    

Pineapple.Express.2008.BRRip.Xvid.AC3-SiC

Poster:
[img]http://leetleech.org/images/27598038015315803991.jpg[/img]

IMDB Link:
http://www.imdb.com/title/tt0910936/

Description:
A process server and his marijuana dealer wind up on the run from hitmen and a 
corrupt police officer after he witness his dealer's boss murder a competitor 
while trying to serve papers on him. 

MediaInfo:
General
Complete name                    : Pineapple.Express.2008.BRRip.Xvid.AC3-SiC.avi
Format                           : AVI
Format/Info                      : Audio Video Interleave
File size                        : 1.30 GiB
Duration                         : 1h 57mn
Overall bit rate                 : 1 583 Kbps

Video
ID                               : 0
Format                           : MPEG-4 Visual
Format profile                   : Advanced Simple@L5
Format settings, BVOP            : Yes
Format settings, QPel            : No
Format settings, GMC             : No warppoints
Format settings, Matrix          : Default (H.263)
Muxing mode                      : Packed bitstream
Codec ID                         : XVID
Codec ID/Hint                    : XviD
Duration                         : 1h 57mn
Bit rate                         : 1 191 Kbps
Width                            : 720 pixels
Height                           : 304 pixels
Display aspect ratio             : 2.35:1
Frame rate                       : 23.976 fps
Resolution                       : 8 bits
Colorimetry                      : 4:2:0
Scan type                        : Progressive
Bits/(Pixel*Frame)               : 0.227
Stream size                      : 1 000 MiB (75%)
Writing library                  : XviD 64

Audio
ID                               : 1
Format                           : AC-3
Format/Info                      : Audio Coding 3
Format_Settings_ModeExtension    : CM (complete main)
Codec ID                         : 2000
Duration                         : 1h 57mn
Bit rate mode                    : Constant
Bit rate                         : 384 Kbps
Channel(s)                       : 6 channels
Channel positions                : Front: L C R, Side: L R, LFE
Sampling rate                    : 48.0 KHz
Stream size                      : 323 MiB (24%)
Alignment                        : Aligned on interleaves
Interleave, duration             : 64 ms (1.53 video frames)
Interleave, preload duration     : 192 ms
Title                            : 6ch English

Screenshots:
[img]http://leetleech.org/images/54733054594546290818.png[/img]
[img]http://leetleech.org/images/14644242803151713531.png[/img]
[img]http://leetleech.org/images/09842653486598658456.png[/img]
[img]http://leetleech.org/images/74617239271032444736.png[/img]
[img]http://leetleech.org/images/33994589625788044811.png[/img]

Note :   N/A 

Source : BluRay-ESiR Thanks!!!

Encoder: Bezauk

Enjoy!

Respects to CaptainHomey, Cyanide, CM8, Rx, THC, ELEKTRI4KA, 
Killerhz, PA, YeFsTe, BoxSlots, MrRep and everyone in the struggle...